<?xml version="1.0" encoding="UTF-8" standalone="no"?>
        <svg 
    viewBox="10.35 -81.3 439.79999999999995 57.6"
    width="429.44999999999993"
    height="138.9"
   xmlns="http://www.w3.org/2000/svg"
   xmlns:svg="http://www.w3.org/2000/svg">
   <path d="M125.85-112.65L95.85-112.65L95.85-94.50L125.85-94.50L125.85-112.65ZM88.95-112.65L59.55-112.65L59.55-94.50L88.95-94.50L88.95-112.65ZM52.65-112.65L24.30-112.65L24.30-94.50L52.65-94.50L52.65-112.65ZM17.25-88.50L17.25-118.65L133.05-118.65L133.05-88.50L17.25-88.50ZM108.45 1.35L108.45-62.85L115.35-62.85L115.35 1.35L108.45 1.35ZM85.95-86.55L85.95-86.55L92.70-84.90Q88.05-73.20 81.15-62.02Q74.25-50.85 67.05-42.90L67.05-42.90Q66.30-43.65 65.25-44.48Q64.20-45.30 63.15-46.05Q62.10-46.80 61.20-47.25L61.20-47.25Q68.70-54.90 75.15-65.25Q81.60-75.60 85.95-86.55ZM79.80-66.30L83.10-66.30L140.55-66.30L140.55-60L83.10-60L83.10 11.40L76.20 11.40L76.20-63L79.80-66.30ZM79.80-38.70L79.80-44.85L137.40-44.85L137.40-38.70L79.80-38.70ZM79.80-17.25L79.80-23.40L137.40-23.40L137.40-17.25L79.80-17.25ZM79.35 4.65L79.35-1.80L143.10-1.80L143.10 4.65L79.35 4.65ZM50.55-50.70L50.55-50.70L56.10-52.65Q60-46.35 63.45-39Q66.90-31.65 68.10-26.40L68.10-26.40L62.55-23.85Q61.20-29.25 57.82-36.75Q54.45-44.25 50.55-50.70ZM33.60-21L33.60-21L39.45-22.05Q41.70-15.60 43.13-8.17Q44.55-0.75 44.85 4.65L44.85 4.65L38.70 5.70Q38.55 0.15 37.13-7.27Q35.70-14.70 33.60-21ZM18.30-21.60L18.30-21.60L24.75-20.85Q23.55-12.60 21.38-4.58Q19.20 3.45 16.35 9.15L16.35 9.15Q15.45 8.70 13.50 8.03Q11.55 7.35 10.35 7.20L10.35 7.20Q13.50 1.50 15.45-6.15Q17.40-13.80 18.30-21.60ZM13.95-54L13.95-54Q13.80-54.90 13.05-57Q12.30-59.10 11.55-60.45L11.55-60.45Q13.35-60.75 15.22-61.88Q17.10-63 19.05-64.95L19.05-64.95Q20.55-66.30 23.77-69.83Q27-73.35 30.97-78.22Q34.95-83.10 38.10-88.05L38.10-88.05L44.85-85.20Q39-77.10 32.48-69.97Q25.95-62.85 19.65-57.75L19.65-57.75L19.65-57.60Q19.65-57.60 18.82-57.23Q18-56.85 16.88-56.32Q15.75-55.80 14.85-55.13Q13.95-54.45 13.95-54ZM13.95-54L13.95-54L13.95-59.10L18.45-61.50L48.90-63.75Q48.60-62.40 48.52-60.67Q48.45-58.95 48.45-57.90L48.45-57.90Q37.80-57 31.35-56.32Q24.90-55.65 21.45-55.27Q18-54.90 16.43-54.60Q14.85-54.30 13.95-54ZM12.90-26.85L12.90-26.85Q12.75-27.45 12.38-28.72Q12-30 11.55-31.20Q11.10-32.40 10.50-33.30L10.50-33.30Q12.75-33.60 15.67-35.40Q18.60-37.20 21.90-40.20L21.90-40.20Q23.85-41.85 27.68-45.23Q31.50-48.60 36.30-53.40Q41.10-58.20 46.20-63.82Q51.30-69.45 55.65-75.15L55.65-75.15L61.95-71.70Q51.60-59.85 40.57-49.20Q29.55-38.55 18.45-30.60L18.45-30.60L18.45-30.45Q18.45-30.45 17.63-30.15Q16.80-29.85 15.67-29.25Q14.55-28.65 13.72-28.05Q12.90-27.45 12.90-26.85ZM12.90-26.85L12.90-26.85L12.75-32.10L17.25-34.65L61.05-38.70Q61.05-37.20 61.35-35.70Q61.65-34.20 61.95-33.15L61.95-33.15Q46.35-31.50 37.05-30.45Q27.75-29.40 22.88-28.72Q18-28.05 15.97-27.68Q13.95-27.30 12.90-26.85ZM50.40-23.25L50.40-23.25L55.95-24.60Q59.55-18.75 62.55-12Q65.55-5.25 66.90-0.15L66.90-0.15L60.90 1.35Q59.85-3.60 56.85-10.50Q53.85-17.40 50.40-23.25ZM102.90-83.55L102.90-83.55L108.90-85.65Q112.05-80.40 114.83-74.33Q117.60-68.25 118.50-63.90L118.50-63.90L112.50-61.50Q111.45-65.85 108.75-72.15Q106.05-78.45 102.90-83.55ZM203.25 4.95L203.25-1.80L278.70-1.80L278.70 4.95L203.25 4.95ZM199.35-103.20L199.35-109.95L255.60-109.95L255.60-103.20L199.35-103.20ZM207.90-125.40L207.90-125.40L216-123.90Q210.90-114.90 203.10-105.30Q195.30-95.70 185.10-86.70Q174.90-77.70 162.15-70.20L162.15-70.20Q161.70-71.10 160.72-72.08Q159.75-73.05 158.78-74.02Q157.80-75 156.90-75.60L156.90-75.60Q169.20-82.50 179.10-91.05Q189-99.60 196.28-108.45Q203.55-117.30 207.90-125.40ZM253.05-108.45L253.05-109.95L254.40-109.95L255.90-110.40L260.40-107.70Q253.65-91.05 242.63-77.17Q231.60-63.30 217.95-52.35Q204.30-41.40 189.45-33.60Q174.60-25.80 160.05-21.15L160.05-21.15Q159.75-22.20 159-23.40Q158.25-24.60 157.43-25.80Q156.60-27 155.85-27.60L155.85-27.60Q169.95-31.65 184.43-39.15Q198.90-46.65 212.25-57.07Q225.60-67.50 236.25-80.47Q246.90-93.45 253.05-108.45L253.05-108.45ZM181.35-87L181.35-87L186.75-91.35Q193.20-87.15 199.88-81.83Q206.55-76.50 212.25-71.10Q217.95-65.70 221.40-61.05L221.40-61.05L215.55-55.95Q212.10-60.45 206.55-66Q201-71.55 194.40-77.02Q187.80-82.50 181.35-87ZM274.95 11.55L274.95-50.25L282.15-50.25L282.15 11.55L274.95 11.55ZM205.80-50.25L206.85-50.25L278.70-50.25L278.70-43.50L206.85-43.50L206.85 11.25L199.50 11.25L199.50-43.95L205.80-50.25ZM318.90-66.45L318.90-72.90L439.80-72.90L439.80-66.45L318.90-66.45ZM319.20-104.55L319.20-111L436.35-111L436.35-104.55L319.20-104.55ZM318.90-49.20L318.90-70.20L325.95-70.20L325.95-49.20Q325.95-42.75 325.35-34.95Q324.75-27.15 323.25-19.05Q321.75-10.95 318.75-3.15Q315.75 4.65 311.10 11.25L311.10 11.25Q310.65 10.65 309.45 9.82Q308.25 9 307.13 8.25Q306 7.50 305.10 7.05L305.10 7.05Q311.10-1.50 314.02-11.47Q316.95-21.45 317.93-31.35Q318.90-41.25 318.90-49.20L318.90-49.20ZM337.80-97.95L337.80-97.95L343.65-102.30Q352.65-100.20 362.63-97.27Q372.60-94.35 382.43-91.05Q392.25-87.75 400.88-84.45Q409.50-81.15 415.80-78.15L415.80-78.15L410.10-73.20Q403.95-76.20 395.48-79.58Q387-82.95 377.25-86.33Q367.50-89.70 357.38-92.77Q347.25-95.85 337.80-97.95ZM405-106.50L405-106.50L411-103.20Q402-96.60 389.40-90.67Q376.80-84.75 362.77-80.02Q348.75-75.30 335.70-72.15L335.70-72.15Q335.25-73.20 334.20-74.85Q333.15-76.50 332.40-77.40L332.40-77.40Q341.85-79.65 352.13-82.72Q362.40-85.80 372.30-89.63Q382.20-93.45 390.75-97.72Q399.30-102 405-106.50ZM406.20-65.70L406.20-65.70L412.20-62.25Q404.40-57.30 393.38-53.17Q382.35-49.05 370.05-45.90Q357.75-42.75 345.90-40.65L345.90-40.65Q345.15-41.85 344.10-43.50Q343.05-45.15 342-46.35L342-46.35Q353.40-48 365.55-50.70Q377.70-53.40 388.35-57.23Q399-61.05 406.20-65.70ZM415.35-46.65L415.35-46.65L421.65-43.35Q413.25-36.90 401.18-31.57Q389.10-26.25 375-22.35Q360.90-18.45 346.80-16.05L346.80-16.05Q346.05-17.40 344.93-19.05Q343.80-20.70 342.75-21.75L342.75-21.75Q356.55-23.85 370.35-27.45Q384.15-31.05 395.93-35.85Q407.70-40.65 415.35-46.65ZM430.05-29.10L430.05-29.10L436.65-25.65Q427.05-15.45 411.60-8.03Q396.15-0.60 376.88 4.35Q357.60 9.30 336.30 11.85L336.30 11.85Q335.70 10.50 334.73 8.63Q333.75 6.75 332.55 5.40L332.55 5.40Q353.55 3.15 372.45-1.43Q391.35-6 406.20-12.90Q421.05-19.80 430.05-29.10ZM369.60-125.10L369.60-125.10L376.05-127.05Q378.60-123 380.70-118.05Q382.80-113.10 383.85-109.35L383.85-109.35L376.80-107.25Q376.05-110.85 373.95-115.88Q371.85-120.90 369.60-125.10Z"/>
    </svg>
        